<?xml version="1.0" encoding="UTF-8"?>
<svg id="Layer_1" data-name="Layer 1" xmlns="http://www.w3.org/2000/svg" viewBox="0 0 432 275.53">
  <defs>
    <style>
      .cls-1 {
        fill: #d92d27;
        stroke-width: 0px;
      }
    </style>
  </defs>
  <g>
    <path class="cls-1" d="M31.87,16.35v38.27c0,2.92.27,4.68.81,5.28.54.6,2.17.91,4.89.91h14.61c6.64,0,11.89-.38,15.75-1.14,3.42-.7,5.63-1.61,6.64-2.75s1.93-3.79,2.75-7.97c.32-1.58,1.13-2.34,2.42-2.28,1.23.06,1.84.92,1.84,2.56,0,.44-.04,1.14-.1,2.08-.56,6.12-.84,11.7-.84,16.75,0,3.85.19,7.66.57,11.45.13,1.26.19,2.18.19,2.74,0,1.58-.61,2.37-1.84,2.37-1.36,0-2.17-.7-2.42-2.09l-.57-2.66c-.76-4.24-2.27-7.11-4.55-8.63s-6.12-2.28-11.55-2.28h-20.92c-3.09,0-5.16.32-6.2.95s-1.56,1.9-1.56,3.8l.09,3.14v34.97c0,5.38.96,8.74,2.89,10.07,1.92,1.33,6.8,2,14.63,2,24.82,0,40.76-5.6,47.84-16.79.71-1.08,1.43-1.64,2.14-1.71,1.17-.06,1.75.75,1.75,2.46,0,4.09-2.31,8.98-6.92,14.65-5.57,6.81-12.58,10.21-21.06,10.21-1.83,0-4.3-.13-7.4-.38-12.08-1.14-22.07-1.71-29.98-1.71-11.07,0-18.88.38-23.43,1.14-2.4.44-4.05.66-4.93.66-2.02,0-3.04-.68-3.04-2.04,0-1.05.82-1.79,2.47-2.23l3.6-1.05c4.55-1.26,6.83-5.7,6.83-13.3l.09-6.18V27.36c0-9.06-1-15.15-2.99-18.29-1.99-3.13-5.87-4.7-11.62-4.7-1.83,0-2.75-.59-2.75-1.76C0,.87,1.42,0,4.27,0c1.58,0,3.7.16,6.36.47,9.04,1.01,19.92,1.52,32.63,1.52,7.72,0,14.55-.13,20.49-.38l13.47-.66c3.73-.13,6.01-.25,6.83-.38,1.71-.25,2.97-.38,3.79-.38,2.09,0,3.13.92,3.13,2.74,0,.57-.09,1.29-.28,2.17-.19.88-.44,3.4-.76,7.56l-.38,5.58c-.32,3.65-.64,5.94-.97,6.85-.32.91-1.03,1.4-2.13,1.46-1.23.06-1.84-.89-1.84-2.85v-2.47c0-2.02-.38-3.95-1.14-5.79-1.2-2.85-3.63-4.74-7.29-5.69-3.66-.95-10.39-1.42-20.17-1.42h-14.87c-3.92,0-6.44.49-7.58,1.48s-1.7,3.16-1.7,6.52Z"/>
    <path class="cls-1" d="M150.55,117.06l16.01-33.68c3.24-6.96,4.86-12.9,4.86-17.83,0-4.36-3.04-7.05-9.11-8.06-1.71-.25-2.56-.86-2.56-1.85,0-1.29.82-1.94,2.46-1.94.82,0,1.99.09,3.5.28,1.32.13,3.63.19,6.9.19,6.49,0,10.81-.09,12.96-.28,1.76-.13,2.93-.19,3.5-.19,1.51,0,2.24.53,2.18,1.58-.06.8-1.39,1.7-3.98,2.69-2.59,1.01-5.03,3.93-7.3,8.74l-30.92,64.58c-.76,1.59-1.8,2.39-3.13,2.39-1.58,0-2.75-.89-3.51-2.67l-27.51-62.49c-2.53-5.7-5.98-9.37-10.34-11.02-1.33-.49-1.99-1.14-1.99-1.94,0-1.3.95-1.94,2.84-1.94.51,0,1.23.06,2.18.19,3.09.38,8.83.57,17.22.57,3.85,0,6.53-.06,8.04-.19,2.08-.19,3.5-.28,4.26-.28,1.45-.06,2.18.59,2.18,1.95,0,.97-.89,1.56-2.66,1.75-5.75.76-8.63,2.58-8.63,5.48,0,1.58.57,3.69,1.72,6.34l20.87,47.66Z"/>
    <path class="cls-1" d="M204.24,83.86l-.09,2.09c0,10.81,2.99,19.91,8.98,27.27,5.98,7.37,13.35,11.05,22.09,11.05,6.91,0,14.41-3.1,22.52-9.3.51-.38.98-.6,1.42-.66.89-.06,1.33.44,1.33,1.51,0,1.89-2.21,4.56-6.64,8.02-8.22,6.42-16.92,9.63-26.09,9.63-10.31,0-18.96-3.92-25.94-11.75-6.99-7.83-10.48-17.53-10.48-29.09s3.6-20.61,10.81-28.85c7.21-8.24,15.65-12.37,25.33-12.37,10.56,0,19,4.4,25.33,13.19,1.52,2.15,3.07,5.06,4.65,8.73s2.37,6.23,2.37,7.68c0,2.09-2.06,3.13-6.18,3.13l-7.03-.09-6.46-.19h-35.92ZM204.81,78.64h32.16c5,0,7.49-1.01,7.49-3.04,0-4.93-2.13-9.52-6.4-13.75-4.27-4.24-8.9-6.36-13.9-6.36s-9.5,2.07-12.95,6.21-5.58,9.79-6.4,16.93Z"/>
    <path class="cls-1" d="M298.62,66.5c8.47-10.06,17.26-15.08,26.37-15.08,10.12,0,18.12,4.15,24,12.44,4.05,5.7,6.07,14.37,6.07,26.02v22.7l-.09,2.85.28,4.56c.7,4.18,3.35,6.62,7.97,7.31l3.98.57c1.71.25,2.59.87,2.66,1.85.06,1.36-.98,2.04-3.12,2.04-.69,0-1.92-.11-3.69-.32-2.08-.29-5.93-.43-11.54-.43l-9.37.28h-3.59l-2.75.19-1.32-.29c-.44-.26-.66-.75-.66-1.46,0-.97.57-1.59,1.71-1.85l2.85-.76c2.53-.63,3.79-2.91,3.79-6.82v-32.68c0-8.78-2.03-15.55-6.08-20.32-4.06-4.77-9.82-7.15-17.3-7.15-5.26,0-9.93,1.55-14.02,4.65-4.09,3.1-6.13,6.64-6.13,10.62v36.21l.09,2.85.09,4.75c.32,5.32,4.71,8.24,13.19,8.74,2.09.2,3.13.88,3.13,2.04s-.73,1.75-2.18,1.75c-1.08,0-2.69-.18-4.84-.54-1.2-.15-4.17-.22-8.92-.22-10.06,0-16.06.14-18.02.43-1.96.22-3.23.32-3.79.32-1.2,0-1.77-.52-1.71-1.56.06-.78.66-1.4,1.8-1.85,3.23-1.13,5.39-2.53,6.5-4.17s1.66-4.29,1.66-7.96v-42.82c0-4.48-.54-7.53-1.61-9.14-1.08-1.61-3.1-2.42-6.07-2.42l-4.08.09c-.57,0-1.08-.13-1.52-.39-.57-.26-.85-.72-.85-1.36,0-.91.82-1.53,2.47-1.85,4.24-.76,8.32-2.06,12.24-3.89l5.03-2.47c1.96-.95,3.19-1.55,3.7-1.8.89-.51,1.64-.76,2.28-.76,1.14,0,1.64.92,1.52,2.75-.06,1.01-.09,2.21-.09,3.6v10.72Z"/>
    <path class="cls-1" d="M401.83,62.89v47.72c0,6.2.89,10.21,2.66,12.05,2.59,2.72,6.29,4.08,11.1,4.08,3.86,0,7.11-.7,9.77-2.09l4.93-2.37.57-.19c.76,0,1.14.35,1.14,1.04,0,2.07-2.5,4.31-7.49,6.73-5,2.41-9.64,3.62-13.94,3.62-14.55,0-21.82-7.58-21.82-22.74v-47.84h-8.44c-1.64,0-2.47-.48-2.47-1.44,0-.89.82-2.03,2.47-3.42,7.4-6.28,13.06-12.56,16.98-18.84,1.71-2.79,2.91-4.19,3.6-4.19.89,0,1.33.82,1.33,2.47l-.38,16.41h20.21c2.78,0,4.93-.51,6.45-1.52.95-.7,1.64-1.08,2.09-1.14.7-.13,1.01.23.95,1.05,0,.32-.28,1.12-.85,2.39l-2.18,5.45c-.7,1.85-2.09,2.77-4.17,2.77h-22.48Z"/>
  </g>
  <g>
    <path class="cls-1" d="M116.6,218.99h43.7c2.17,0,3.56-.19,4.15-.58.59-.39.89-1.27.89-2.64v-25c0-5.03-.65-8.6-1.96-10.7-1.31-2.1-3.72-3.54-7.22-4.33-1.48-.29-2.2-.86-2.15-1.71.05-.81.67-1.21,1.85-1.21,1.04,0,2.72.12,5.04.37,3.26.34,6.72.51,10.37.51,5.28,0,8.99-.15,11.11-.44,1.33-.19,2.25-.29,2.74-.29,1.19,0,1.78.47,1.78,1.42,0,.75-.59,1.25-1.78,1.5l-3.04.66c-1.53.29-2.81,1.38-3.85,3.25s-1.56,4.03-1.56,6.47v70.65c0,5.21.74,8.82,2.22,10.81s4.32,3.21,8.52,3.65c1.53.19,2.32.67,2.37,1.43.1,1.14-.59,1.71-2.07,1.71-.99,0-2.27-.12-3.85-.37-1.19-.19-3.65-.29-7.41-.29l-5.48-.07-5.56.15c-.89,0-2.07.07-3.56.22-3.06.24-4.77.37-5.11.37-1.23.05-1.83-.43-1.78-1.43.05-.86.89-1.4,2.52-1.64,5.18-.88,7.78-5.05,7.78-12.51l.07-2.86v-26.85c0-2.29-.22-3.63-.67-4.02-.44-.39-1.93-.58-4.44-.58h-43.63c-2.81,0-4.57.28-5.26.84s-1.04,1.98-1.04,4.27v26.81c0,5.07.81,8.62,2.44,10.67,1.63,2.05,4.67,3.31,9.11,3.8,1.83.19,2.77.81,2.81,1.86.05,1-.67,1.5-2.15,1.5-.64,0-1.85-.11-3.63-.33-1.33-.22-4.3-.33-8.89-.33l-6.22-.07-4.89.16c-1.23,0-2.79.08-4.67.25-2.57.21-4.12.32-4.67.32-1.23,0-1.85-.45-1.85-1.36,0-.86.64-1.42,1.93-1.71l3.7-.88c2.17-.49,3.65-2.1,4.44-4.83s1.19-7.52,1.19-14.35v-62.83c0-4.25-.81-7.32-2.44-9.23s-4.54-3.17-8.74-3.81c-1.43-.19-2.15-.71-2.15-1.57,0-1,.64-1.48,1.93-1.43.94.05,2.42.19,4.44.44,3.85.44,8.37.66,13.55.66,3.51,0,6.79-.19,9.85-.58,1.33-.19,2.37-.29,3.11-.29,1.43,0,2.15.5,2.15,1.5,0,.76-.67,1.31-2,1.64-3.31.83-5.53,2.02-6.67,3.56-1.14,1.54-1.7,4.12-1.7,7.73v26.17c0,2.79.28,4.45.85,4.98.57.54,2.38.81,5.44.81Z"/>
    <path class="cls-1" d="M251.48,264.43c-5.73,7.31-12.69,10.96-20.89,10.96-6.91,0-12.31-2.11-16.18-6.32-3.88-4.21-5.81-10.09-5.81-17.64l.07-4.82v-24.18c0-2.48-.52-4.21-1.56-5.19s-2.96-1.53-5.78-1.68c-1.23-.09-1.83-.59-1.78-1.5.05-.86,1.57-1.35,4.58-1.5l5.61-.22c1.23-.1,3.07-.44,5.54-1.02.69-.19,1.23-.29,1.62-.29,1.33,0,1.99,1.14,1.99,3.43v1.1l-.3,32.66v2.34l1.19,8.84c1.04,3.12,2.97,5.7,5.79,7.74,2.82,2.05,5.89,3.07,9.2,3.07,4.36,0,8.23-1.26,11.62-3.78s5.09-5.4,5.09-8.64v-34.92c0-2.78-.48-4.68-1.44-5.7s-2.75-1.53-5.37-1.53c-1.58,0-2.37-.45-2.37-1.36,0-1.09.89-1.66,2.67-1.71l2.44-.15,5.18-.22c1.68-.1,3.6-.49,5.78-1.17.69-.19,1.28-.32,1.78-.37,1.04-.05,1.56.83,1.56,2.63v47.43c0,3.74.41,6.21,1.22,7.41.81,1.19,2.48,1.79,5,1.79h1.19l1.04-.07c1.09,0,1.65.37,1.7,1.12.05,1.05-1.38,1.65-4.3,1.8l-4.67.29c-3.21.15-5.28.34-6.22.58-1.19.29-2.1.44-2.74.44-1.58,0-2.37-2.28-2.37-6.85l-.07-2.8Z"/>
    <path class="cls-1" d="M298.07,221.55c4.54-3.56,8.42-6,11.65-7.34,3.23-1.34,6.77-2.01,10.61-2.01,7.64,0,13.89,2.72,18.75,8.15s7.29,12.41,7.29,20.93c0,9.59-2.93,17.7-8.78,24.33-5.85,6.62-13.02,9.94-21.52,9.94-7.16,0-13.85-2.39-20.07-7.16-.79-.63-1.38-.93-1.78-.88-.67.05-1.66,1.38-2.96,3.98-1.41,2.61-2.46,3.91-3.16,3.91-.9,0-1.35-.63-1.35-1.9,0-.49.17-1.48.52-2.99.4-1.7.59-4.42.59-8.17v-72.73c0-5.54-.42-9.12-1.26-10.72-.44-.78-1.15-1.53-2.11-2.26s-1.72-1.07-2.26-1.02l-4.67.37-.59-.15c-.44-.2-.67-.55-.67-1.05.05-.9.87-1.52,2.45-1.87,5.9-1.32,11.4-3.46,16.5-6.43.64-.34,1.16-.51,1.56-.51.84,0,1.26.73,1.26,2.19v53.4ZM298.07,230.09v23l-.07,2.79,1.03,4.97c1.43,3.12,3.97,5.76,7.64,7.93,3.66,2.17,7.44,3.25,11.33,3.25,6.3,0,11.32-2.26,15.05-6.78s5.61-10.56,5.61-18.13-2.48-14.68-7.45-20.73c-4.97-6.05-10.65-9.08-17.05-9.08-5.12,0-9.64,1.9-13.58,5.7-1.67,1.61-2.51,3.97-2.51,7.09Z"/>
  </g>
</svg>