<?xml version="1.0" encoding="UTF-8"?>
<svg version="1.1" xmlns="http://www.w3.org/2000/svg" width="512" height="512">
<path d="M0 0 C1.02802734 0.00322266 2.05605469 0.00644531 3.11523438 0.00976562 C4.72301758 0.02233398 4.72301758 0.02233398 6.36328125 0.03515625 C7.44673828 0.03966797 8.53019531 0.04417969 9.64648438 0.04882812 C12.3229721 0.06061882 14.99934902 0.07707562 17.67578125 0.09765625 C17.6897998 1.30711914 17.6897998 1.30711914 17.70410156 2.54101562 C17.75809165 6.2271621 17.84168573 9.91207866 17.92578125 13.59765625 C17.93996094 14.86609375 17.95414063 16.13453125 17.96875 17.44140625 C18.18573927 25.77379424 18.81698851 31.64586418 24.4296875 38.12109375 C30.4355243 42.60925689 36.63610454 44.49261524 44.16796875 43.90234375 C50.20248879 42.78484004 54.50679302 40.26664448 58.86328125 35.91015625 C63.7518048 28.32451626 64.17573741 20.35700018 64.36328125 11.53515625 C64.46640625 7.76078125 64.56953125 3.98640625 64.67578125 0.09765625 C75.56578125 0.09765625 86.45578125 0.09765625 97.67578125 0.09765625 C97.98828125 11.53515625 97.98828125 11.53515625 98.0637207 15.08374023 C98.38071574 24.19792611 99.66209284 31.88750163 106.08984375 38.66015625 C111.41521982 43.48709811 117.70957638 44.2524608 124.67578125 44.09765625 C130.77970484 43.02946962 135.3628633 40.61117504 139.67578125 36.09765625 C144.37916024 28.84769637 144.32941831 22.07366185 144.42578125 13.59765625 C144.50828125 9.14265625 144.59078125 4.68765625 144.67578125 0.09765625 C155.89578125 0.09765625 167.11578125 0.09765625 178.67578125 0.09765625 C178.98828125 11.53515625 178.98828125 11.53515625 179.0637207 15.08374023 C179.38071574 24.19792611 180.66209284 31.88750163 187.08984375 38.66015625 C192.39140829 43.46551524 198.72326021 44.38350261 205.67578125 44.09765625 C212.39734343 42.75156091 217.30752083 40.4083988 221.5546875 34.9765625 C224.22464164 30.501831 224.94765013 26.6744423 225.08984375 21.484375 C225.1254541 20.35990967 225.16106445 19.23544434 225.19775391 18.0769043 C225.24875244 15.95248901 225.24875244 15.95248901 225.30078125 13.78515625 C225.42453125 9.26828125 225.54828125 4.75140625 225.67578125 0.09765625 C236.89578125 0.09765625 248.11578125 0.09765625 259.67578125 0.09765625 C260.05078125 10.53515625 260.05078125 10.53515625 260.15380859 13.76733398 C260.56333566 23.7822165 261.39110544 32.21949396 269.11328125 39.34765625 C274.54686011 43.05839303 280.4201277 44.55207349 286.98046875 43.8515625 C293.11436684 42.68467616 297.34967283 40.35730443 301.86328125 35.97265625 C306.68199679 28.32917642 307.16687042 19.7943082 307.36328125 10.97265625 C307.39744141 9.92078125 307.43160156 8.86890625 307.46679688 7.78515625 C307.54832757 5.22276312 307.61777853 2.66067128 307.67578125 0.09765625 C327.75828196 -0.68224669 327.75828196 -0.68224669 334.67578125 4.09765625 C335.63871094 4.75121094 335.63871094 4.75121094 336.62109375 5.41796875 C342.06922282 9.58954875 344.54300526 14.69932827 346.67578125 21.09765625 C346.7685568 22.52708035 346.80664249 23.96042694 346.81000233 25.39285469 C346.81446017 26.27457663 346.81891801 27.15629856 346.82351094 28.06473935 C346.8232344 29.51903782 346.8232344 29.51903782 346.82295227 31.00271606 C346.82662896 32.03206799 346.83030565 33.06141992 346.83409375 34.12196434 C346.84514964 37.58798772 346.84897768 41.05398114 346.8527832 44.52001953 C346.85904644 46.99843949 346.86569311 49.47685851 346.87269592 51.95527649 C346.8919375 59.40537556 346.90252669 66.85546667 346.91142371 74.3055833 C346.91580769 77.81501943 346.92117427 81.32445406 346.92641258 84.83388901 C346.9434255 96.50227355 346.95791885 108.17065716 346.96516132 119.8390522 C346.96707119 122.86698533 346.96899152 125.89491846 346.97094727 128.92285156 C346.97143101 129.6754198 346.97191475 130.42798804 346.97241315 131.20336138 C346.98071037 143.38977325 347.00604178 155.57608686 347.03852794 167.76245584 C347.07161784 180.27748358 347.08961188 192.79246143 347.09280556 205.30753314 C347.09496902 212.33282175 347.10369328 219.35796712 347.12926674 226.38321304 C347.15327548 232.99386284 347.15678727 239.60430148 347.14650536 246.21500206 C347.14600947 248.63974425 347.15234536 251.06449905 347.1660614 253.4892025 C347.18375789 256.8033419 347.17668424 260.11655439 347.16352844 263.43069458 C347.17998231 264.86491656 347.17998231 264.86491656 347.19676858 266.32811272 C347.11453475 274.92792241 344.3865249 282.20089179 338.47120708 288.5405398 C330.79913604 295.19428612 322.71787521 295.81804314 312.92979431 295.72584534 C311.55813486 295.73089867 310.18648203 295.73813355 308.81484419 295.74734348 C305.06926584 295.76618119 301.32434505 295.75408073 297.57878387 295.73662055 C293.53031736 295.72320396 289.48194437 295.7386989 285.43348694 295.7504425 C277.51219783 295.76879107 269.59115592 295.76032567 261.6698746 295.74235428 C255.23090844 295.72831153 248.79200925 295.72443908 242.35302925 295.72779655 C241.43556272 295.728274 240.5180962 295.72875144 239.57282766 295.72924335 C237.70885056 295.73026971 235.84487348 295.73132507 233.98089642 295.73240911 C217.51057103 295.74097042 201.04036476 295.72431915 184.57006836 295.69458008 C168.5970357 295.66573937 152.62417461 295.65866211 136.65112305 295.67407227 C119.24566076 295.69084143 101.84027988 295.6948617 84.43481547 295.67736191 C82.57811615 295.67551757 80.72141682 295.67368284 78.86471748 295.67185783 C77.95124916 295.67094574 77.03778084 295.67003365 76.09663166 295.66909393 C69.66665563 295.66349334 63.2367194 295.66679121 56.80674553 295.67340279 C48.96902645 295.68114215 41.13147611 295.67436155 33.29379099 295.64922775 C29.29667137 295.63674721 25.29981427 295.63056855 21.30268478 295.64176941 C17.64043055 295.65183796 13.97869896 295.64329725 10.31650812 295.62018823 C8.37113385 295.61261709 6.42571349 295.62455628 4.48036617 295.63729197 C-4.35512728 295.55373739 -10.27877943 293.8205481 -17.57421875 288.91015625 C-23.11043224 283.24811972 -26.43949772 276.69557784 -26.45843983 268.73184872 C-26.46289767 267.85981932 -26.46735551 266.98778992 -26.47194844 266.08933538 C-26.47176408 265.13575299 -26.47157972 264.1821706 -26.47138977 263.19969177 C-26.47506646 262.18314721 -26.47874315 261.16660264 -26.48253125 260.1192537 C-26.49357133 256.70246288 -26.49741251 253.28570247 -26.5012207 249.86889648 C-26.50748515 247.42313032 -26.51413194 244.97736511 -26.52113342 242.53160095 C-26.54036253 235.18424575 -26.55096242 227.83689862 -26.55986121 220.48952565 C-26.56424745 217.02667263 -26.56961343 213.56382113 -26.57485008 210.10096931 C-26.5918616 198.58438529 -26.60635435 187.0678022 -26.61359882 175.55120754 C-26.61550862 172.56367936 -26.61742896 169.57615119 -26.61938477 166.58862305 C-26.61986851 165.84611677 -26.62035225 165.1036105 -26.62085065 164.33860404 C-26.62914566 152.31850262 -26.65447395 140.29850089 -26.68696544 128.27844297 C-26.7200759 115.9283557 -26.73805123 103.57831902 -26.74124306 91.22818714 C-26.74340461 84.29786405 -26.75210088 77.36768628 -26.77770424 70.43740654 C-26.80174712 63.91455962 -26.80521193 57.39192659 -26.79494286 50.86902809 C-26.79444774 48.47898871 -26.80076093 46.08893641 -26.8144989 43.69893646 C-26.83224843 40.42714891 -26.82509579 37.15629534 -26.81196594 33.88450623 C-26.82293519 32.94653889 -26.83390443 32.00857155 -26.84520608 31.04218096 C-26.76886115 23.12125222 -24.66581162 16.15041314 -20.69921875 9.28515625 C-14.79226093 3.84453721 -8.09967828 -0.0447496 0 0 Z M11.984375 90.20703125 C7.82959946 96.17388961 5.43345491 101.54033875 5.40835571 108.92170715 C5.39982574 110.06127365 5.39129578 111.20084015 5.38250732 112.37493896 C5.3834137 113.61092834 5.38432007 114.84691772 5.38525391 116.12036133 C5.37853668 117.43326645 5.37181946 118.74617157 5.36489868 120.09886169 C5.34727941 123.68992403 5.34254501 127.28089096 5.34126711 130.87199235 C5.33984255 133.11908021 5.33556717 135.36614406 5.33027267 137.61322594 C5.31178532 145.46262519 5.30360037 153.31195665 5.30517578 161.16137695 C5.30637658 168.46186116 5.28528316 175.76204945 5.25368845 183.06245881 C5.22747925 189.34378656 5.21681044 195.62501794 5.2180866 201.90639991 C5.21859491 205.65198317 5.2129851 209.39730333 5.1917305 213.1428318 C5.16864833 217.32434727 5.17789729 221.50520569 5.18994141 225.68676758 C5.17870239 226.91668427 5.16746338 228.14660095 5.15588379 229.41378784 C5.23075613 239.66001771 7.75060882 246.79650976 14.75390625 254.30859375 C22.93713272 261.9263127 31.38915759 263.40037816 42.2137146 263.35835266 C43.26281844 263.36217821 44.31192228 263.36600376 45.39281714 263.36994523 C48.90174053 263.38024884 52.41049948 263.37628803 55.91943359 263.37231445 C58.43785249 263.37666238 60.95627006 263.3818458 63.47468567 263.38780212 C69.60158433 263.39980412 75.72842256 263.40234455 81.85533069 263.40000186 C86.83697575 263.39821694 91.81860753 263.39997208 96.80025101 263.4042263 C97.50997191 263.40482149 98.21969281 263.40541668 98.95092041 263.40602991 C100.39284709 263.40724169 101.83477377 263.40845583 103.27670045 263.40967228 C116.79168278 263.42054252 130.30664014 263.41838781 143.82162388 263.41228744 C156.17589557 263.40711908 168.5300884 263.41837247 180.8843445 263.43738566 C193.58030636 263.4567744 206.27623092 263.46501822 218.97220767 263.4612624 C226.09576998 263.45935189 233.21926518 263.4618233 240.3428154 263.47597694 C247.04216683 263.48915342 253.74133502 263.48661666 260.44069481 263.47356606 C262.89768337 263.47119944 265.35468302 263.47393798 267.81165886 263.48218918 C271.16924919 263.49265074 274.52630922 263.4845601 277.88388062 263.47187805 C278.85286392 263.47925234 279.82184722 263.48662662 280.82019365 263.49422437 C290.97326439 263.41371633 298.55574064 260.59330167 306.23828125 253.84765625 C314.7470864 244.24797864 315.97731979 235.1020908 315.95043945 222.59814453 C315.95555038 221.36458221 315.96066132 220.1310199 315.96592712 218.8600769 C315.9774003 215.49626837 315.97990396 212.13270723 315.97736382 208.76889658 C315.97628906 205.95106645 315.98119038 203.13325869 315.98596925 200.31543338 C315.99703942 193.66225736 315.99751602 187.0091378 315.99145508 180.35595703 C315.98541799 173.51446836 315.99772519 166.67318549 316.01902515 159.83173192 C316.03669442 153.93760697 316.04263411 148.04354721 316.0393874 142.14939678 C316.03758274 138.63804513 316.04012834 135.12684028 316.05410194 131.61551285 C316.06911983 127.69558014 316.05966373 123.77590549 316.0480957 119.85595703 C316.05573944 118.70758362 316.06338318 117.55921021 316.07125854 116.3760376 C316.0010682 105.57680184 313.76448459 96.45048502 306.67578125 88.09765625 C298.750891 80.58295701 290.53331437 78.64493031 279.91043091 78.7099762 C278.84892755 78.70459066 277.7874242 78.69920512 276.69375408 78.69365638 C273.14874431 78.67938729 269.6041085 78.68647817 266.05908203 78.69360352 C263.51258037 78.68789941 260.96608126 78.68093499 258.41958618 78.67280579 C252.2276274 78.65672585 246.03580595 78.65477298 239.84383263 78.66001869 C234.80882022 78.66406617 229.77383774 78.66260998 224.73882675 78.65727043 C224.02120398 78.65652201 223.3035812 78.65577359 222.56421228 78.65500249 C221.10618186 78.65347095 219.64815145 78.6519326 218.19012104 78.65038752 C204.52773236 78.6366707 190.865401 78.64209427 177.20301364 78.65357273 C164.71689175 78.66350289 152.23091809 78.65056679 139.74481906 78.62663854 C126.90982125 78.60222787 114.07489241 78.59264458 101.23987186 78.59929127 C94.03970394 78.6027793 86.83964998 78.60057906 79.63949966 78.58304024 C72.86785521 78.56674921 66.09653852 78.57153044 59.32488632 78.59034538 C56.84251713 78.59403043 54.36012697 78.59092534 51.8777771 78.58045959 C48.48322593 78.56724287 45.08961023 78.57880459 41.69509888 78.59645081 C40.71803769 78.5868458 39.74097651 78.57724079 38.73430741 78.56734473 C28.70036301 78.6743072 18.42772048 82.17145028 11.984375 90.20703125 Z " fill="#D6001C" transform="translate(97.32421875,115.90234375)"/>
<path d="M0 0 C0.94735519 0.0028299 1.89471039 0.00565979 2.87077332 0.00857544 C5.88663541 0.01974063 8.90219691 0.04483861 11.91796875 0.0703125 C13.96679258 0.08034703 16.01562107 0.08947205 18.06445312 0.09765625 C23.07824023 0.11966801 28.09180358 0.15417279 33.10546875 0.1953125 C33.59570521 1.44353141 34.08026359 2.6939811 34.5625 3.9453125 C34.96819214 4.98945313 34.96819214 4.98945313 35.38208008 6.0546875 C36.4092304 9.09419274 36.77362502 12.00961273 37.10546875 15.1953125 C37.76546875 15.1953125 38.42546875 15.1953125 39.10546875 15.1953125 C39.28722656 14.32519531 39.28722656 14.32519531 39.47265625 13.4375 C39.64023438 12.65632812 39.8078125 11.87515625 39.98046875 11.0703125 C40.14289063 10.30460938 40.3053125 9.53890625 40.47265625 8.75 C41.19002128 5.85397079 42.16198596 3.02576087 43.10546875 0.1953125 C50.03546875 0.1953125 56.96546875 0.1953125 64.10546875 0.1953125 C59.84609197 11.77485829 55.29701261 23.20028174 50.55444336 34.58984375 C49.40560163 37.35002546 48.2621156 40.11238446 47.11914062 42.875 C46.38182321 44.65117154 45.64420418 46.42721792 44.90625 48.203125 C44.56870193 49.01878937 44.23115387 49.83445374 43.88337708 50.67483521 C42.10593635 54.93476638 40.22989106 59.09272477 38.10546875 63.1953125 C35.80537717 60.89522092 35.09134383 59.05399002 33.87475586 56.04296875 C33.43767807 54.96845459 33.00060028 53.89394043 32.55027771 52.78686523 C32.08251419 51.62227783 31.61475067 50.45769043 31.1328125 49.2578125 C30.39480998 47.43841703 29.65680704 45.61902173 28.91877842 43.79963684 C27.88542304 41.24841633 26.85682547 38.69528757 25.82806396 36.14221191 C24.27468784 32.29010963 22.71479612 28.44064267 21.15536594 24.59098816 C19.9422166 21.59601949 18.73056685 18.60046553 17.52171326 15.60375977 C17.08778763 14.52924561 16.653862 13.45473145 16.20678711 12.34765625 C15.82421249 11.39882568 15.44163788 10.44999512 15.04747009 9.47241211 C14.4489259 8.02555137 13.80570602 6.59578703 13.10546875 5.1953125 C12.77546875 9.4853125 12.44546875 13.7753125 12.10546875 18.1953125 C7.15546875 18.5253125 2.20546875 18.8553125 -2.89453125 19.1953125 C-2.89453125 19.8553125 -2.89453125 20.5153125 -2.89453125 21.1953125 C-0.1927007 22.54622778 2.22355081 22.53389308 5.23046875 22.7578125 C7.16921875 22.9021875 9.10796875 23.0465625 11.10546875 23.1953125 C11.10546875 27.8153125 11.10546875 32.4353125 11.10546875 37.1953125 C6.15546875 37.5253125 1.20546875 37.8553125 -3.89453125 38.1953125 C-4.22453125 39.1853125 -4.55453125 40.1753125 -4.89453125 41.1953125 C0.71546875 41.5253125 6.32546875 41.8553125 12.10546875 42.1953125 C12.10546875 47.8053125 12.10546875 53.4153125 12.10546875 59.1953125 C8.6046223 59.30395946 5.10719703 59.38294075 1.60546875 59.4453125 C0.13207031 59.49558594 0.13207031 59.49558594 -1.37109375 59.546875 C-7.70522356 59.63133006 -12.68096667 59.01125279 -17.89453125 55.1953125 C-23.72627337 48.01778373 -23.11041509 40.92559537 -23.13476562 32.08837891 C-23.14443667 29.96606732 -23.17546878 27.84473948 -23.20703125 25.72265625 C-23.26296271 18.62772391 -23.19445165 12.58989509 -19.89453125 6.1953125 C-13.90767861 0.20845986 -8.03099791 -0.09062486 0 0 Z " fill="#D6001C" transform="translate(142.89453125,212.8046875)"/>
<path d="M0 0 C7.1775 -0.12375 7.1775 -0.12375 14.5 -0.25 C15.99337891 -0.28641602 17.48675781 -0.32283203 19.02539062 -0.36035156 C26.44108889 -0.42218229 31.86530612 -0.37766991 38 4 C41.63998482 8.40553718 41.54648209 12.52184411 41.4375 18.0390625 C40.77711915 22.50842576 39.00470116 24.69482872 36 28 C36.86625 28.309375 36.86625 28.309375 37.75 28.625 C40.90625884 30.55382485 42.71320967 32.57293595 44 36 C44.76949522 41.61731508 44.79513121 46.35083897 42.3125 51.5 C39.13914965 54.93064902 36.47236542 57.50921153 32 59 C27.99616868 59.13399703 24.0072645 59.04308887 20 59 C20 53.72 20 48.44 20 43 C23.465 42.505 23.465 42.505 27 42 C27.33 41.01 27.66 40.02 28 39 C25.36 38.67 22.72 38.34 20 38 C20 32.72 20 27.44 20 22 C21.65 21.67 23.3 21.34 25 21 C25 19.68 25 18.36 25 17 C23.02 16.67 21.04 16.34 19 16 C19 30.19 19 44.38 19 59 C12.73 59 6.46 59 0 59 C0 39.53 0 20.06 0 0 Z " fill="#D6001C" transform="translate(352,302)"/>
<path d="M0 0 C6.27 0 12.54 0 19 0 C19.495 20.295 19.495 20.295 20 41 C21.32 41 22.64 41 24 41 C24.33 27.47 24.66 13.94 25 0 C31.27 0 37.54 0 44 0 C44.06915976 5.81710453 44.12880637 11.63276193 44.16479492 17.44995117 C44.17980956 19.42558649 44.20022751 21.40118889 44.22631836 23.37670898 C44.26302572 26.22908695 44.27979993 29.08102129 44.29296875 31.93359375 C44.30845261 32.80584091 44.32393646 33.67808807 44.33988953 34.57676697 C44.34179692 41.64924156 43.01400877 47.76320019 39.25 53.8125 C34.12529523 58.79485186 28.79452805 60.70811323 21.75 61.25 C15.72402838 60.84826856 10.86607739 59.50097529 6.125 55.6875 C0.12865092 48.10388205 -0.1528982 40.71270144 -0.09765625 31.4453125 C-0.0962413 30.54376434 -0.09482635 29.64221619 -0.09336853 28.71334839 C-0.0877974 25.850531 -0.07525026 22.98779352 -0.0625 20.125 C-0.05748127 18.17708447 -0.05291901 16.2291677 -0.04882812 14.28125 C-0.03869083 9.52077822 -0.01910986 4.76047794 0 0 Z " fill="#D6001C" transform="translate(299,302)"/>
<path d="M0 0 C4.09527694 5.19374966 6.1325897 9.85878455 6.11352539 16.49316406 C6.11344986 17.37377502 6.11337433 18.25438599 6.11329651 19.16168213 C6.10813522 20.10348328 6.10297394 21.04528442 6.09765625 22.015625 C6.0962413 22.98659119 6.09482635 23.95755737 6.09336853 24.95794678 C6.08777663 28.05532935 6.07522559 31.15263932 6.0625 34.25 C6.05748395 36.35156146 6.05292123 38.45312404 6.04882812 40.5546875 C6.03780985 45.70315292 6.02055074 50.85156416 6 56 C0.06 56 -5.88 56 -12 56 C-12.06058594 53.29167969 -12.12117188 50.58335937 -12.18359375 47.79296875 C-12.24539098 45.17176543 -12.30877544 42.55060497 -12.37231445 39.92944336 C-12.41564287 38.10689096 -12.45731947 36.28429852 -12.49731445 34.46166992 C-12.55506762 31.84281339 -12.61874756 29.22415805 -12.68359375 26.60546875 C-12.70030624 25.78974899 -12.71701874 24.97402924 -12.73423767 24.1335907 C-12.82013245 20.85820456 -12.95752134 18.12743599 -14 15 C-15.32 14.67 -16.64 14.34 -18 14 C-18.33 27.86 -18.66 41.72 -19 56 C-24.94 56 -30.88 56 -37 56 C-37.09927816 49.73783939 -37.17166238 43.47614241 -37.21972656 37.21337891 C-37.23977468 35.08536798 -37.26702054 32.95741168 -37.30175781 30.82958984 C-37.35057548 27.76125567 -37.37303726 24.69365327 -37.390625 21.625 C-37.41127014 20.68197021 -37.43191528 19.73894043 -37.45318604 18.76733398 C-37.45556718 11.67152497 -35.85145156 6.51679026 -31.359375 0.9765625 C-22.34168627 -6.59654502 -9.49638562 -7.40718078 0 0 Z " fill="#D6001C" transform="translate(288,216)"/>
<path d="M0 0 C3.93302757 2.00226858 6.78575033 4.15419793 9 8 C10.26138047 12.62487964 10.1615703 17.23608572 10.16796875 21.9921875 C10.17129715 22.85635284 10.17462555 23.72051819 10.17805481 24.61087036 C10.18310542 26.43474803 10.18546371 28.25863488 10.18530273 30.08251953 C10.18748706 32.8585549 10.20565661 35.63419121 10.22460938 38.41015625 C10.2275442 40.18749865 10.2295284 41.96484293 10.23046875 43.7421875 C10.23765427 44.5653244 10.24483978 45.3884613 10.25224304 46.23654175 C10.22758985 52.52007957 9.77159643 57.91042472 5.5625 62.875 C1.2773531 66.42853646 -2.81827259 66.46004582 -8.19921875 66.41015625 C-11.97474266 65.85725526 -13.90722119 64.44271489 -16.66015625 61.8984375 C-20.42275904 56.5671694 -20.30736271 50.72457119 -20.30078125 44.47265625 C-20.30506638 43.56551376 -20.3093515 42.65837128 -20.31376648 41.72373962 C-20.31949067 39.81168449 -20.32002418 37.89960758 -20.31567383 35.98754883 C-20.31251389 33.07530288 -20.33599678 30.16407371 -20.36132812 27.25195312 C-20.36360144 25.38802211 -20.36430446 23.52408837 -20.36328125 21.66015625 C-20.372491 20.79640884 -20.38170074 19.93266144 -20.39118958 19.04273987 C-20.34994593 13.60668137 -19.58721455 9.81066835 -17 5 C-11.54137926 -0.05920946 -7.29268285 -0.81776628 0 0 Z " fill="#FF0202" transform="translate(386,86)"/>
<path d="M0 0 C3.93302757 2.00226858 6.78575033 4.15419793 9 8 C10.26138047 12.62487964 10.1615703 17.23608572 10.16796875 21.9921875 C10.17129715 22.85635284 10.17462555 23.72051819 10.17805481 24.61087036 C10.18310542 26.43474803 10.18546371 28.25863488 10.18530273 30.08251953 C10.18748706 32.8585549 10.20565661 35.63419121 10.22460938 38.41015625 C10.2275442 40.18749865 10.2295284 41.96484293 10.23046875 43.7421875 C10.23765427 44.5653244 10.24483978 45.3884613 10.25224304 46.23654175 C10.2301879 51.85789513 9.85747074 57.15818099 6.6953125 61.99609375 C2.98898839 65.39816738 0.05058922 66.47785046 -5 66.75 C-10.05058922 66.47785046 -12.98898839 65.39816738 -16.6953125 61.99609375 C-20.31718355 56.45484792 -20.29729337 50.20226415 -20.265625 43.8125 C-20.26753845 42.95116455 -20.2694519 42.0898291 -20.27142334 41.20239258 C-20.27277773 39.39045925 -20.26913367 37.57851597 -20.26074219 35.76660156 C-20.25003199 33.0082398 -20.26066285 30.25052923 -20.2734375 27.4921875 C-20.27211577 25.72395691 -20.26955311 23.95572672 -20.265625 22.1875 C-20.26967346 21.37063721 -20.27372192 20.55377441 -20.27789307 19.7121582 C-20.2344862 14.35744325 -20.11988386 8.56920707 -16.5625 4.2578125 C-10.78680391 0.07043284 -7.11258359 -0.79757082 0 0 Z " fill="#FF0202" transform="translate(305,86)"/>
<path d="M0 0 C3.93302757 2.00226858 6.78575033 4.15419793 9 8 C10.2813189 12.68517041 10.17899878 17.39089596 10.203125 22.2109375 C10.20882507 23.09729889 10.21452515 23.98366028 10.22039795 24.8968811 C10.22982152 26.76783056 10.2363714 28.63879642 10.24023438 30.50976562 C10.24994332 33.35836956 10.28099294 36.20625254 10.3125 39.0546875 C10.31903065 40.87759991 10.32428088 42.70051745 10.328125 44.5234375 C10.3404718 45.36844818 10.3528186 46.21345886 10.36553955 47.08407593 C10.34001821 53.92285307 9.02847128 58.55543205 4.5625 63.9375 C0.72604062 66.81484453 -3.43561026 66.75466526 -8.08203125 66.546875 C-11.83651192 65.843224 -13.91649183 64.54680228 -16.6953125 61.99609375 C-20.32394328 56.44450593 -20.29722891 50.1785904 -20.265625 43.77734375 C-20.26753845 42.91363663 -20.2694519 42.0499295 -20.27142334 41.16004944 C-20.27277761 39.34391995 -20.26913442 37.52778053 -20.26074219 35.71166992 C-20.25001868 32.94232342 -20.26066997 30.1736236 -20.2734375 27.40429688 C-20.27211603 25.63281108 -20.26955388 23.86132568 -20.265625 22.08984375 C-20.27169769 20.85680763 -20.27169769 20.85680763 -20.27789307 19.59886169 C-20.22057787 12.52771371 -18.99820342 7.29221539 -14 2 C-9.54254053 -0.72400301 -5.0786332 -0.65789561 0 0 Z " fill="#FF0202" transform="translate(224,86)"/>
<path d="M0 0 C3.95222679 2.01204273 6.72762595 4.17284371 9 8 C9.84254008 10.7817359 10.13348595 13.29884856 10.16113281 16.19848633 C10.17074036 17.01646194 10.1803479 17.83443756 10.19024658 18.67720032 C10.19449646 19.55329453 10.19874634 20.42938873 10.203125 21.33203125 C10.20882507 22.24200363 10.21452515 23.15197601 10.22039795 24.08952332 C10.22983394 26.01352786 10.23637636 27.93754846 10.24023438 29.86157227 C10.2499304 32.79146819 10.28096307 35.7206595 10.3125 38.65039062 C10.31903162 40.52343335 10.32428147 42.39648108 10.328125 44.26953125 C10.3404718 45.13955276 10.3528186 46.00957428 10.36553955 46.90596008 C10.34037411 53.84431574 9.10772924 58.52341814 4.5 63.9375 C0.82781134 66.72615454 -2.98203047 66.57923763 -7.4453125 66.35546875 C-12.04071076 65.71604789 -14.13368691 63.91444159 -17.25 60.625 C-20.62436595 55.56345108 -20.17276472 49.92980493 -20.203125 44.04296875 C-20.20882507 43.18117508 -20.21452515 42.31938141 -20.22039795 41.43147278 C-20.22982114 39.61179827 -20.23637125 37.79210691 -20.24023438 35.97241211 C-20.24993088 33.20721248 -20.28097571 30.44275955 -20.3125 27.67773438 C-20.31903198 25.90365021 -20.32428169 24.12956077 -20.328125 22.35546875 C-20.3404718 21.53749313 -20.3528186 20.71951752 -20.36553955 19.87675476 C-20.34407208 14.26801806 -19.3504061 10.11412811 -17 5 C-11.62650792 -0.11137051 -7.23811142 -0.8116469 0 0 Z " fill="#FF0303" transform="translate(143,86)"/>
<path d="M0 0 C1.01771484 0.01353516 2.03542969 0.02707031 3.08398438 0.04101562 C5.57705381 0.07612928 8.06984807 0.12992806 10.5625 0.1875 C10.5625 6.1275 10.5625 12.0675 10.5625 18.1875 C5.6125 18.5175 0.6625 18.8475 -4.4375 19.1875 C-4.4375 19.8475 -4.4375 20.5075 -4.4375 21.1875 C-1.73566945 22.53841528 0.68058206 22.52608058 3.6875 22.75 C5.62625 22.894375 7.565 23.03875 9.5625 23.1875 C9.5625 27.8075 9.5625 32.4275 9.5625 37.1875 C4.6125 37.5175 -0.3375 37.8475 -5.4375 38.1875 C-5.4375 38.8475 -5.4375 39.5075 -5.4375 40.1875 C-0.89148272 42.46050864 5.64929597 41.87484156 10.5625 42.1875 C10.5625 47.7975 10.5625 53.4075 10.5625 59.1875 C7.06165355 59.29614696 3.56422828 59.37512825 0.0625 59.4375 C-1.41089844 59.48777344 -1.41089844 59.48777344 -2.9140625 59.5390625 C-9.25626014 59.62362514 -14.21125895 58.99257731 -19.4375 55.1875 C-25.71470414 47.62266424 -24.62039278 39.17436234 -24.625 29.8125 C-24.63724609 28.51054687 -24.64949219 27.20859375 -24.66210938 25.8671875 C-24.66404297 24.60390625 -24.66597656 23.340625 -24.66796875 22.0390625 C-24.67207764 20.89260254 -24.67618652 19.74614258 -24.68041992 18.56494141 C-24.2406688 12.45085397 -22.88689296 7.5166391 -18.4375 3.1875 C-12.30234259 -0.22364752 -6.91526184 -0.17546858 0 0 Z " fill="#D6001C" transform="translate(232.4375,212.8125)"/>
<path d="M0 0 C14.85 0 29.7 0 45 0 C45 5.94 45 11.88 45 18 C40.71 18 36.42 18 32 18 C32 31.53 32 45.06 32 59 C26.06 59 20.12 59 14 59 C14 45.47 14 31.94 14 18 C9.38 18 4.76 18 0 18 C0 12.06 0 6.12 0 0 Z " fill="#D6001C" transform="translate(298,213)"/>
<path d="M0 0 C6.27 0 12.54 0 19 0 C19 6.93 19 13.86 19 21 C20.32 21 21.64 21 23 21 C23 26.28 23 31.56 23 37 C21.68 37 20.36 37 19 37 C19 44.26 19 51.52 19 59 C12.73 59 6.46 59 0 59 C0 39.53 0 20.06 0 0 Z " fill="#D6001C" transform="translate(246,302)"/>
<path d="M0 0 C6.27 0 12.54 0 19 0 C19 19.47 19 38.94 19 59 C12.73 59 6.46 59 0 59 C0 39.53 0 20.06 0 0 Z " fill="#D6001C" transform="translate(271,302)"/>
</svg>
